HIERARCHY
ROOT hip
{
  OFFSET 0 0 0
  CHANNELS 6 Xposition Yposition Zposition Zrotation Yrotation Xrotation
  JOINT abdomen
  {
    OFFSET 0 20.6881 -0.73152
    CHANNELS 3 Zrotation Xrotation Yrotation
    JOINT chest
    {
      OFFSET 0 11.7043 -0.48768
      CHANNELS 3 Zrotation Xrotation Yrotation
      JOINT neck
      {
        OFFSET 0 22.1894 -2.19456
        CHANNELS 3 Zrotation Xrotation Yrotation
        JOINT head
        {
          OFFSET -0.24384 7.07133 1.2192
          CHANNELS 3 Zrotation Xrotation Yrotation
          JOINT leftEye
          {
            OFFSET 4.14528 8.04674 8.04672
            CHANNELS 3 Zrotation Xrotation Yrotation
            End Site
            {
              OFFSET 1 0 0
            }
          }
          JOINT rightEye
          {
            OFFSET -3.6576 8.04674 8.04672
            CHANNELS 3 Zrotation Xrotation Yrotation
            End Site
            {
              OFFSET 1 0 0
            }
          }
        }
      }
      JOINT rCollar
      {
        OFFSET -2.68224 19.2634 -4.8768
        CHANNELS 3 Zrotation Xrotation Yrotation
        JOINT rShldr
        {
          OFFSET -8.77824 -1.95073 1.46304
          CHANNELS 3 Zrotation Xrotation Yrotation
          JOINT rForeArm
          {
            OFFSET -28.1742 -1.7115 0.48768
            CHANNELS 3 Zrotation Xrotation Yrotation
            JOINT rHand
            {
              OFFSET -22.5879 0.773209 7.07136
              CHANNELS 3 Zrotation Xrotation Yrotation
              JOINT rThumb1
              {
                OFFSET -1.2192 -0.487915 3.41376
                CHANNELS 3 Zrotation Xrotation Yrotation
                JOINT rThumb2
                {
                  OFFSET -3.37035 -0.52449 3.41376
                  CHANNELS 3 Zrotation Xrotation Yrotation
                  End Site
                  {
                    OFFSET -1.78271 -1.18214 1.43049
                  }
                }
              }
              JOINT rIndex1
              {
                OFFSET -7.75947 0.938293 5.60832
                CHANNELS 3 Zrotation Xrotation Yrotation
                JOINT rIndex2
                {
                  OFFSET -2.54057 -0.884171 1.56538
                  CHANNELS 3 Zrotation Xrotation Yrotation
                  End Site
                  {
                    OFFSET -1.62519 -0.234802 1.16502
                  }
                }
              }
              JOINT rMid1
              {
                OFFSET -8.24714 1.18213 3.41376
                CHANNELS 3 Zrotation Xrotation Yrotation
                JOINT rMid2
                {
                  OFFSET -3.10165 -0.590103 1.0647
                  CHANNELS 3 Zrotation Xrotation Yrotation
                  End Site
                  {
                    OFFSET -2.48547 -0.328903 0.83742
                  }
                }
              }
              JOINT rRing1
              {
                OFFSET -8.82822 0.546677 1.51678
                CHANNELS 3 Zrotation Xrotation Yrotation
                JOINT rRing2
                {
                  OFFSET -2.60934 -0.819778 -0.0198488
                  CHANNELS 3 Zrotation Xrotation Yrotation
                  End Site
                  {
                    OFFSET -2.33842 -0.294052 0.168128
                  }
                }
              }
              JOINT rPinky1
              {
                OFFSET -8.27202 -0.0477905 -0.4584
                CHANNELS 3 Zrotation Xrotation Yrotation
                JOINT rPinky2
                {
                  OFFSET -1.82734 -0.647385 -0.700984
                  CHANNELS 3 Zrotation Xrotation Yrotation
                  End Site
                  {
                    OFFSET -1.69225 -0.51767 -0.607171
                  }
                }
              }
            }
          }
        }
      }
      JOINT lCollar
      {
        OFFSET 2.68224 19.2634 -4.8768
        CHANNELS 3 Zrotation Xrotation Yrotation
        JOINT lShldr
        {
          OFFSET 8.77824 -1.95073 1.46304
          CHANNELS 3 Zrotation Xrotation Yrotation
          JOINT lForeArm
          {
            OFFSET 28.1742 -1.7115 0.48768
            CHANNELS 3 Zrotation Xrotation Yrotation
            JOINT lHand
            {
              OFFSET 22.5879 0.773209 7.07136
              CHANNELS 3 Zrotation Xrotation Yrotation
              JOINT lThumb1
              {
                OFFSET 1.2192 -0.487915 3.41376
                CHANNELS 3 Zrotation Xrotation Yrotation
                JOINT lThumb2
                {
                  OFFSET 3.37035 -0.52449 3.41376
                  CHANNELS 3 Zrotation Xrotation Yrotation
                  End Site
                  {
                    OFFSET 1.78271 -1.18214 1.43049
                  }
                }
              }
              JOINT lIndex1
              {
                OFFSET 7.75947 0.938293 5.60832
                CHANNELS 3 Zrotation Xrotation Yrotation
                JOINT lIndex2
                {
                  OFFSET 2.54057 -0.884171 1.56538
                  CHANNELS 3 Zrotation Xrotation Yrotation
                  End Site
                  {
                    OFFSET 1.62519 -0.234802 1.16502
                  }
                }
              }
              JOINT lMid1
              {
                OFFSET 8.24714 1.18213 3.41376
                CHANNELS 3 Zrotation Xrotation Yrotation
                JOINT lMid2
                {
                  OFFSET 3.10165 -0.590103 1.0647
                  CHANNELS 3 Zrotation Xrotation Yrotation
                  End Site
                  {
                    OFFSET 2.48547 -0.328903 0.83742
                  }
                }
              }
              JOINT lRing1
              {
                OFFSET 8.82822 0.546677 1.51678
                CHANNELS 3 Zrotation Xrotation Yrotation
                JOINT lRing2
                {
                  OFFSET 2.60934 -0.819778 -0.0198488
                  CHANNELS 3 Zrotation Xrotation Yrotation
                  End Site
                  {
                    OFFSET 2.33842 -0.294052 0.168128
                  }
                }
              }
              JOINT lPinky1
              {
                OFFSET 8.27202 -0.0477905 -0.4584
                CHANNELS 3 Zrotation Xrotation Yrotation
                JOINT lPinky2
                {
                  OFFSET 1.82734 -0.647385 -0.700984
                  CHANNELS 3 Zrotation Xrotation Yrotation
                  End Site
                  {
                    OFFSET 1.69225 -0.51767 -0.607171
                  }
                }
              }
            }
          }
        }
      }
    }
  }
  JOINT rButtock
  {
    OFFSET -8.77824 4.35084 1.2192
    CHANNELS 3 Zrotation Xrotation Yrotation
    JOINT rThigh
    {
      OFFSET 0 -1.70687 -2.19456
      CHANNELS 3 Zrotation Xrotation Yrotation
      JOINT rShin
      {
        OFFSET 0 -36.8199 0.73152
        CHANNELS 3 Zrotation Xrotation Yrotation
        JOINT rFoot
        {
          OFFSET 0.73152 -45.1104 -5.12064
          CHANNELS 3 Zrotation Xrotation Yrotation
          End Site
          {
            OFFSET -1.1221 -3.69964 12.103
          }
        }
      }
    }
  }
  JOINT lButtock
  {
    OFFSET 8.77824 4.35084 1.2192
    CHANNELS 3 Zrotation Xrotation Yrotation
    JOINT lThigh
    {
      OFFSET 0 -1.70687 -2.19456
      CHANNELS 3 Zrotation Xrotation Yrotation
      JOINT lShin
      {
        OFFSET 0 -36.8199 0.73152
        CHANNELS 3 Zrotation Xrotation Yrotation
        JOINT lFoot
        {
          OFFSET -0.73152 -45.1104 -5.12064
          CHANNELS 3 Zrotation Xrotation Yrotation
          End Site
          {
            OFFSET 1.1221 -3.69964 12.103
          }
        }
      }
    }
  }
}
MOTION
Frames:	8
Frame Time:	0.03333
0.0 0.0 0.0 0.0 0.0 0.0 0.0 0.0 0.0 0.0 0.0 0.0 0.0 0.0 0.0 0.0 0.0 0.0 0.0 0.0 0.0 0.0 0.0 0.0 0.0 0.0 0.0 0.0 0.0 0.0 0.0 0.0 0.0 0.0 0.0 0.0 0.0 0.0 0.0 0.0 0.0 0.0 0.0 0.0 0.0 0.0 0.0 0.0 0.0 0.0 0.0 0.0 0.0 0.0 0.0 0.0 0.0 0.0 0.0 0.0 0.0 0.0 0.0 0.0 0.0 0.0 0.0 0.0 0.0 0.0 0.0 0.0 0.0 0.0 0.0 0.0 0.0 0.0 0.0 0.0 0.0 0.0 0.0 0.0 0.0 0.0 0.0 0.0 0.0 0.0 0.0 0.0 0.0 0.0 0.0 0.0 0.0 0.0 0.0 0.0 0.0 0.0 0.0 0.0 0.0 0.0 0.0 0.0 0.0 0.0 0.0 0.0 0.0 0.0 0.0 0.0 0.0 0.0 0.0 0.0 0.0 0.0 0.0 0.0 0.0 0.0 0.0 0.0 0.0 0.0 0.0 0.0
-0.0046 67.98870000000001 -0.0478 178.983682 35.429762 -174.853451 -11.101334 7.897569 1.080529 7.582634 -8.873087 -16.509061 7.668514 30.524997 83.646281 -33.821022 4.036076 -145.842969 0.000837 0.0 0.000428 0.000837 0.0 0.000428 -9.651837 34.836104 11.199565 44.827719 31.947786 34.600996 170.738267 46.171684 112.035678 170.662217 -15.598966 144.077271 -7.758665 7.439064 1.681895 -25.019358 19.390789 25.751575 -148.887175 -12.609619 120.244458 -155.849563 -3.090662 118.894545 -145.288459 29.524724 132.693072 -163.650191 -6.258223 143.159541 0.005405 1.812941 0.569175 9.795963 5.062117 0.588836 -23.389317 -36.350248 -22.49223 -158.223918 52.571245 -149.511729 -0.11813 -0.714087 0.157536 -101.439602 -85.217902 -20.936264 -81.782738 -83.044367 -5.289889 -164.217732 -25.622158 -142.672542 -51.059879 -41.203469 -12.857763 147.785104 -23.483508 -126.395535 90.225462 41.073472 -75.797037 -5.330044 1.260703 5.048619 10.977185 25.789559 -7.640593 153.980768 20.031936 -138.70698 145.117709 0.267322 179.213346 -8.769337 -13.984957 10.944889 157.331333 57.246477 150.510661 83.108336 -52.68968 81.816244 -0.004973 0.000585 -0.004973 -33.829371 -64.124195 -102.696679 -73.616259 22.170414 158.561984 -167.446422 -33.421453 76.753164 -179.977296 75.749671 -0.01868 -143.563179 82.72286 -36.6585 -13.060548 39.249836 -71.565256 -86.378762 75.997132 -165.295915
-0.0051 67.9865 -0.052899999999999996 179.112483 35.475151 -174.722704 -11.038921 7.870555 1.069056 7.555268 -8.849032 -16.438229 -1.592472 23.204371 21.716036 -8.511838 -24.632664 -84.776393 0.00404 -0.0 -0.003269 -0.001531 -0.0 0.002279 3.736837 -33.150853 -6.414392 -13.716674 -56.251263 -72.442973 176.404158 68.83686 -131.778979 -9.400549 29.282686 1.537193 88.928459 -50.831644 37.599475 -137.576243 17.968472 100.466852 -145.024816 -5.716658 118.52356 -119.165931 45.954334 95.60296 -86.295161 60.961215 77.857365 80.816574 -77.807359 52.167642 -145.12069 0.310612 -179.224676 -154.183699 -12.523452 -177.501524 -36.739271 -44.884589 -35.624839 -80.013733 -54.032663 -80.452041 6.251408 26.219102 -7.468509 -85.273761 -13.555288 -30.294314 2.832433 13.337371 -40.491408 5.615129 25.874791 -1.503045 176.427792 -14.046692 -89.707093 145.669313 9.037958 -76.18456 -12.21564 -21.784911 5.121233 -1.493899 16.932235 -3.084743 36.034593 51.724193 -29.830288 -3.258494 0.430958 -0.127057 0.008715 -0.872124 0.27386 -11.512599 -23.573832 2.838189 135.822071 -11.890909 133.183018 -16.553962 41.545268 -6.031897 -179.988891 75.749547 -0.00914 163.635451 7.22366 82.323334 72.028127 14.518655 -118.087623 104.172265 22.891813 -12.620454 179.999694 75.749772 0.000316 -140.623195 82.191719 -70.682423 -26.321275 38.465938 150.787428 -69.660744 38.7778 -42.733899
-0.0212 67.9829 -0.0758 179.151079 35.545748 -174.624482 -8.691228 4.35951 -116.439577 2.334287 7.211432 100.135288 -2.18516 22.99792 18.869527 -6.593204 -25.025366 -81.428926 0.000754 -0.0 -0.00216 0.000754 -0.0 -0.00216 0.02334 -0.138596 -0.031117 64.269758 16.207818 -2.844597 -5.745779 1.078882 42.29055 -4.461932 15.335716 0.23469 -173.977035 -11.643122 89.881675 -35.490964 -26.49481 3.40783 1.339472 -2.205133 -0.738222 17.134835 -7.542402 -1.327542 -89.836004 60.702834 81.262669 -167.186318 -17.366925 144.026851 -0.020646 -1.725153 -0.542509 -156.434251 -32.217496 175.643874 -87.575923 -50.208173 -85.929677 -147.027373 13.50868 -143.055275 142.973846 39.431977 -147.39091 -125.695833 -4.873507 -135.651597 -88.863772 -30.7399 -67.86865 162.667506 56.475287 -138.841848 178.928678 -16.453231 -89.421559 -52.739566 -71.820675 -39.588321 138.494368 4.896499 -114.864583 -179.19751 -44.064463 -113.964323 89.836495 60.70184 -81.262178 -29.842345 -60.114749 -6.735451 145.122267 1.893691 179.723714 -11.769621 29.608486 5.633414 142.162759 3.163742 139.107472 84.942652 -51.995043 84.501836 0.007499 -3.6e-05 0.003749 -33.496784 -64.229264 -102.12493 -83.207652 19.424708 -104.034121 17.640783 26.660379 -154.880192 0.001009 -3.6e-05 -0.001298 3.905883 6.161283 147.53756 32.694869 -27.977231 152.684707 37.171997 10.410265 104.933445
-0.0412 67.9794 -0.0957 179.145988 35.582175 -174.559113 -10.825822 7.767079 -0.0 7.645002 -8.650231 -15.196801 7.21886 29.228641 80.382484 -32.343037 2.16354 -143.10476 0.001965 0.0 0.001945 -0.004158 0.0 -2.9e-05 -82.877472 68.299295 86.00066 -95.657 18.452551 104.3148 7.740607 -15.874144 -74.625771 168.216268 -22.024717 143.066822 -0.442372 0.434871 0.070665 -124.592755 -17.384258 111.452777 -151.92973 -18.230273 121.315564 -177.180117 -43.443013 115.194059 -154.143729 11.63481 139.428766 -170.213241 -25.751737 143.898296 -72.758105 -72.141834 -89.772914 -144.429489 -56.342309 -172.39104 -153.549381 42.672433 -148.513341 -81.071217 -52.726139 -80.030072 159.219977 -48.028368 -170.415945 -74.717041 53.500664 109.513261 12.104199 47.715234 -50.429572 4.184489 21.355708 -1.222485 4.90461 4.762302 -0.952207 122.267381 -16.174674 -108.781021 0.328204 0.529623 -0.186868 9.545145 25.52458 -8.226812 36.038476 51.722021 -29.833839 -80.701536 -77.899347 -52.068972 -0.000886 0.022384 -0.00865 156.064162 -12.555603 -173.346208 7.142722 -15.707995 6.726673 -45.175853 83.454254 7.484135 0.0 -0.000434 0.001177 -37.662359 -64.907182 139.559875 2.375995 -77.274536 -93.248418 1.134607 -64.964639 -82.509514 -0.004237 -0.000434 -0.002119 3.382233 7.10491 89.447339 41.086903 -3.317838 -26.878297 -104.665569 2.534091 -14.467813
-0.0484 67.97879999999999 -0.1207 179.060137 35.618331 -174.592343 -8.804896 4.331307 -115.992805 2.357081 7.171535 99.861205 7.601662 30.37487 92.544963 -31.856424 9.084012 -153.784477 0.000459 0.0 0.000667 -1e-06 0.0 -0.00159 -13.743386 42.431569 15.569232 -123.746735 -21.003526 143.224822 -27.049822 -51.000128 -97.819826 154.72667 -47.052754 134.119391 -1.583219 1.556431 0.263975 -30.074113 23.232629 27.453842 -46.208439 39.651976 36.319484 -1.748526 12.358574 0.134132 89.035706 -81.39257 59.760567 -88.799107 63.887944 80.321379 -145.119801 0.185319 -179.186896 12.120788 44.670393 -3.866954 12.253269 41.424862 10.279374 0.927445 -2.177535 -0.972896 155.578403 -3.999354 -161.941633 58.584883 15.170506 -1.262927 -109.89855 39.638922 95.107483 113.221114 75.965117 -94.514714 -4.416647 -4.400734 0.512046 2.488649 1.881738 0.891256 33.799241 34.484524 -25.495134 -94.339418 -62.727952 -45.074183 14.094235 30.982902 -10.182166 -11.48944 -24.91683 1.530289 73.162421 -72.14305 90.197875 -14.103106 26.716546 1.027336 87.575735 -50.209653 85.930107 -2.249965 -2.973056 1.995565 179.987793 75.749339 0.008352 165.978713 6.484811 -114.335384 -73.056165 -32.671333 39.810799 68.312152 49.02614 20.804971 0.00126 0.000918 -0.0 5.535654 7.109006 -90.510058 -41.251658 1.918366 153.867003 40.751175 -39.950972 -10.743345
-0.044700000000000004 67.979 -0.1513 179.089293 35.605923 -174.56217 -8.612888 5.77363 -80.55914 7.460127 4.034659 64.408306 -11.002342 23.644655 -25.976633 21.772233 -17.296909 -30.37916 0.000331 -0.0 -0.000782 0.000331 -0.0 -0.000782 -83.951073 68.258817 87.08587 80.994501 -24.920647 72.799323 -3.152886 -11.54882 41.085815 -5.383457 18.085054 0.378144 169.031577 -27.078044 86.618396 -142.656188 15.3086 79.057563 -152.106168 -18.556349 121.367647 -171.343939 -34.926208 117.738156 6.533407 -20.414863 -2.718456 -167.391888 -17.300532 144.213067 -73.164624 -72.142656 -90.198033 13.907029 29.735248 -0.560283 -146.208389 15.405398 -142.730845 1.953176 -0.712606 -2.210007 155.614316 -4.23632 -161.991218 -128.524658 -15.320088 -178.819216 179.438864 27.884424 -106.119941 -163.17402 -28.346909 -141.85866 173.771542 -11.439567 -89.891525 -9.881855 -60.151186 -11.780899 27.420962 30.639417 -20.098794 11.975589 24.963559 -6.775705 -7.903945 -24.807637 3.013361 175.150717 -38.99825 -143.372497 145.065778 -3.222826 178.115011 74.291414 -78.005834 96.078322 152.203375 37.329952 147.581533 26.024876 -40.242196 26.84735 179.982352 75.749109 0.012075 163.8681 7.387217 66.03355 70.233886 30.742918 -121.876773 70.765532 34.917428 14.17901 -0.005945 0.000532 -0.002972 3.340267 6.573521 118.395419 34.382141 -15.579576 -109.787612 128.507066 23.90978 -17.721193
-0.031 67.9779 -0.1585 179.170829 35.569579 -174.528228 -8.731183 4.341425 -116.23893 2.336324 7.176981 100.134836 6.930774 28.566218 75.903436 -31.749021 -0.340575 -139.173208 -0.003683 0.0 -0.002774 0.002153 0.0 0.002226 4.224103 -44.0256 -8.500075 -123.063465 -6.598752 -145.088336 152.856628 -12.30415 -150.242992 -26.663363 57.579456 12.615264 -2.813036 2.754548 0.498452 -127.716565 -23.878153 112.790366 -153.452492 -21.068273 121.743713 -5.419726 29.149162 -1.3704 -36.034527 51.723533 29.832103 -147.958095 31.553884 134.442568 0.004074 1.770488 0.555955 -12.517357 67.625163 25.22216 17.866351 62.502602 12.925982 -129.37492 -28.878013 -126.483964 -2.459745 -18.216272 3.670161 161.015092 80.610137 122.052713 2.279511 -79.057414 -34.179293 7.231478 30.004732 -1.836082 10.48049 9.911019 -2.492614 157.748642 -62.754177 -109.830361 162.918468 -37.929862 -122.628234 -83.541759 -68.823528 -29.815553 160.341529 -5.644211 -143.087622 -18.827954 -43.226358 -0.554704 72.967045 -72.141127 89.991055 86.351764 82.968833 -104.260193 -7.927652 24.811819 -7.00174 43.455662 -50.831461 43.231845 179.992332 75.749264 0.007911 165.967969 6.461835 -114.242333 -81.38962 -21.781855 -134.439186 -147.361269 -14.535908 137.037841 -0.006101 0.000659 -0.003051 3.785962 6.111601 148.136874 22.338393 -36.948271 -77.860865 156.356387 -12.69913 17.947144
